<svg width="600" height="130" xmlns="http://www.w3.org/2000/svg"><g fill-rule="nonzero" fill="none"><g fill="#00144A"><path d="M558.042 86.466c0-3.376.902-5.473 2.531-5.473 1.63 0 3.303 3.134 3.897 9.91l.132 1.411-5.922.927a31.766 31.766 0 0 1-.638-6.775Zm19.99 15.228-.97-.839a11.324 11.324 0 0 1-7.925 3.31c-4.535 0-8.234-3.045-9.995-8.982h17.612c.124-.973.19-1.953.199-2.935 0-6.62-4.998-13.241-14.222-13.241a17.59 17.59 0 0 0-12.655 5.193 17.678 17.678 0 0 0-5.134 12.705c0 10.549 7.067 17.655 16.358 17.655 7.727 0 12.923-4.414 16.753-12.888l-.022.022Zm-39.122-9.777c2.4-7.106 4.403-9.114 6.297-9.644l.704-.199v-2.008c-3.78.331-7.58.331-11.36 0v2.008l.837.265c1.827.596 2.928 2.207.969 9.049l-3.039 10.813-4.645-13.925c-1.43-4.414-.44-5.34 1.123-5.937l.704-.265v-2.008c-6.89.331-14.948.331-21.75 0v2.008l.572.133c1.1.265 1.43.86 2.862 4.568l10.259 26.615a107.15 107.15 0 0 1 9.224 0l7.243-21.473Zm-48.807 10.042c0 8.01 0 9.114-1.497 9.379l-1.101.199v2.008a206.66 206.66 0 0 1 20.254 0v-2.008l-1.101-.2c-1.431-.264-1.497-1.367-1.497-9.378V92.91c0-3.376 0-9.71.264-13.241l-.638-.574a84.996 84.996 0 0 1-17.282 1.236v2.008l.594.133c2.004.463 2.004 1.898 2.004 12.116v7.37Zm15.586-32.42a8.102 8.102 0 0 0-4.688-7.752 8.065 8.065 0 0 0-8.925 1.464 8.113 8.113 0 0 0-1.98 8.846 8.08 8.08 0 0 0 7.448 5.144 7.628 7.628 0 0 0 5.658-2.074 7.667 7.667 0 0 0 2.4-5.54l.087-.088Zm-35.07 42.77c-4.601 0-8.806-4.171-12.659-9.82h-1.629c.132 3.376.132 6.377 0 9.29a34.184 34.184 0 0 0 13.21 2.803c9.994 0 16.159-4.039 16.159-11.321 0-6.113-4.403-9.578-8.807-11.851-5.966-3.068-9.356-5.209-9.356-7.879a2.21 2.21 0 0 1 .698-1.618 2.198 2.198 0 0 1 1.658-.589c4.028 0 8.497 5.208 11.161 9.313h1.63c-.199-2.803-.265-6.62-.265-8.342a20.218 20.218 0 0 0-11.294-3.244c-9.224 0-15.08 4.745-15.08 11.321 0 5.407 3.589 8.519 7.551 10.814 6.297 3.575 10.061 5.65 10.061 8.828 0 1.567-1.43 2.207-3.06 2.207l.022.088Zm-31.834-.088c-4.623 0-8.806-4.171-12.68-9.821h-1.608c.132 3.377.132 6.378 0 9.291a34.075 34.075 0 0 0 13.21 2.803c10.016 0 16.18-4.039 16.18-11.322 0-6.113-4.402-9.578-8.806-11.85-5.9-3.046-9.18-5.12-9.18-7.791a2.21 2.21 0 0 1 .69-1.61 2.198 2.198 0 0 1 1.644-.597c4.029 0 8.52 5.208 11.183 9.313h1.608c-.199-2.803-.265-6.62-.265-8.342a20.151 20.151 0 0 0-11.36-3.178c-9.224 0-15.058 4.745-15.058 11.322 0 5.407 3.567 8.518 7.53 10.813 6.296 3.576 10.06 5.65 10.06 8.828 0 1.567-1.43 2.207-3.038 2.207l-.11-.066Zm-36.347-25.755c0-3.376.903-5.473 2.532-5.473s3.302 3.134 3.896 9.91l.133 1.411-5.923.927a31.766 31.766 0 0 1-.638-6.775Zm19.99 15.228-.969-.839a11.324 11.324 0 0 1-7.925 3.31c-4.535 0-8.256-3.045-9.995-8.982h17.612c.124-.973.19-1.953.198-2.935 0-6.62-4.997-13.241-14.222-13.241a17.59 17.59 0 0 0-12.654 5.193 17.678 17.678 0 0 0-5.134 12.705c0 10.549 7.067 17.655 16.357 17.655 7.728 0 12.923-4.414 16.754-12.888l-.022.022Zm-45.638 9.82-1.167-.33c-2.906-.84-3.17-1.435-3.17-9.247V94.08a6.275 6.275 0 0 1 6.935-4.679c2.003.057 3.986.422 5.878 1.082l1.1-.662a7.008 7.008 0 0 0 1.366-4.414 5.747 5.747 0 0 0-1.411-4.453 5.718 5.718 0 0 0-4.247-1.925c-5.064 0-7.793 3.774-9.73 11.851 0-3.465.131-8.342.263-11.277l-.66-.574a84.864 84.864 0 0 1-17.282 1.236v2.008l.594.133c2.004.463 2.004 1.897 2.004 12.115v7.438c0 7.944.264 8.827-2.07 9.445l-.528.133v2.008a244.14 244.14 0 0 1 22.015 0l.11-2.03Zm-53.166 8.541a4.663 4.663 0 0 1 1.298-3.443c1.714.332 3.452.524 5.196.574 8.806.397 10.721 1.302 10.721 3.531 0 2.604-3.434 4.877-9.158 4.877-5.394 0-8.057-2.604-8.057-5.539Zm8.123-38.996c1.827 0 3.5 6.113 3.5 14.19 0 3.134-.506 4.635-1.43 4.635-1.806 0-3.5-6.003-3.5-14.19 0-3.2.528-4.635 1.43-4.635Zm20.915 33.104c0-6.202-5.9-8.828-16.82-9.247-8.806-.397-11.008-.993-11.008-2.737a1.987 1.987 0 0 1 .859-1.434 23.987 23.987 0 0 0 7.331 1.103c9.224 0 15.983-5.142 15.983-11.321 0-4.414-3.258-8.21-8.256-10.086a25.062 25.062 0 0 1 10.524-1.258l.396-1.103c.132-3.906-1.695-6.82-4.821-6.82-3.127 0-6.737 2.98-7.662 8.652a23.612 23.612 0 0 0-6.604-.905c-9.203 0-15.961 5.01-15.961 11.321 0 4.304 2.928 7.879 7.529 9.821-4.403 1.832-7.727 4.568-7.727 8.21 0 3.972 2.663 6.444 6.758 7.68-5.393.264-8.806 2.471-8.806 5.01 0 3.53 4.403 6.907 16.313 6.907 11.228 0 22.016-5.473 22.016-13.793h-.044Zm-53.806-9.512c0 4.745-.704 7.349-2.069 7.349-2.796 0-5.328-13.462-5.328-23.106 0-4.745.727-7.35 2.202-7.35 2.774 0 5.306 13.397 5.306 23.107h-.11Zm-22.411-7.746c0 10.218 7.067 17.655 18.449 17.655 10.633 0 19.153-6.753 19.153-17.898 0-10.218-7.023-17.655-18.383-17.655-10.655 0-19.219 6.753-19.219 17.898Zm-12.857 14.587-1.167-.33c-2.928-.84-3.192-1.435-3.192-9.248V94.08a6.275 6.275 0 0 1 6.957-4.679c2.03.033 4.043.383 5.966 1.038l1.1-.662a6.875 6.875 0 0 0 1.366-4.414 5.747 5.747 0 0 0-1.404-4.445 5.718 5.718 0 0 0-4.232-1.933c-5.086 0-7.794 3.774-9.753 11.85 0-3.464.132-8.341.264-11.276l-.66-.574a84.754 84.754 0 0 1-17.26 1.236v2.008l.572.132c2.026.464 2.026 1.898 2.026 12.116v7.482c0 7.944.242 8.827-2.092 9.445l-.506.133v2.008a244.14 244.14 0 0 1 22.015 0v-2.053Zm-48.191-40.077c3.764 0 7.463 6.62 7.463 12.778 0 4.944-2.334 9.357-7.463 9.755V71.415Zm4.403 39.99-1.1-.266c-2.951-.794-3.303-1.898-3.303-9.18v-5.473c15.058-.2 23.578-7.283 23.578-15.294s-5.592-12.315-19.814-12.315c-4.557 0-9.026.265-13.055.265-3.324 0-6.296 0-9.092-.265v2.03l1.1.2c1.432.242 1.498 1.301 1.498 9.312v21.672c0 7.879 0 8.982-1.497 9.247l-1.1.199v2.008c6.89-.331 15.784-.331 22.785 0v-2.14ZM423.859 11.41l-3.83.838v2.207h3.764V33.39c0 8.828 4.557 12.756 10.853 12.756 5.064 0 8.564-2.34 11.822-7.812l-.99-1.104a5.473 5.473 0 0 1-3.369 1.17c-2.201 0-3.236-1.434-3.236-5.782v-18.14h6.869v-2.605h-6.869V1.964l-1.629-.441c-3.765 4.81-7.287 8.518-13.385 9.887Zm-4.8 31.713-1.1-.199c-1.431-.265-1.497-1.368-1.497-9.38V22.07c0-8.475-5.13-11.388-10.391-11.388-4.653.03-8.9 2.662-11.008 6.82 0-2.207.132-4.547.198-6.246l-.638-.574a84.996 84.996 0 0 1-17.282 1.236v2.009l.594.132c2.003.463 2.003 1.898 2.003 12.116v7.37c0 8.012 0 9.115-1.497 9.38l-1.1.199v2.008a193.834 193.834 0 0 1 19.615 0v-2.008l-.528-.133c-1.607-.397-1.431-1.434-1.431-9.445V19.487a4.265 4.265 0 0 1 2.928-1.17c2.201 0 3.368 1.611 3.368 6.047v9.18c0 8.277-.242 9.115-1.409 9.446l-.528.133v2.008a193.834 193.834 0 0 1 19.615 0l.089-2.008Zm-63.117-25.07c0-3.377.903-5.474 2.532-5.474s3.302 3.134 3.896 9.91l.11 1.412-5.9.927c-.465-2.228-.68-4.5-.638-6.776Zm19.99 15.227-.969-.839a11.324 11.324 0 0 1-7.925 3.31c-4.558 0-8.256-3.045-9.995-8.981h17.612c.124-.974.19-1.954.198-2.936 0-6.62-4.997-13.24-14.222-13.24a17.59 17.59 0 0 0-12.654 5.192 17.678 17.678 0 0 0-5.134 12.705c0 10.549 7.067 17.655 16.357 17.655 7.727 0 12.923-4.414 16.754-12.888l-.022.022ZM325.56 43.873c-4.623 0-8.806-4.17-12.659-9.82h-1.629c.132 3.376.132 6.377 0 9.29a34.184 34.184 0 0 0 13.21 2.803c9.994 0 16.158-4.038 16.158-11.321 0-6.113-4.403-9.578-8.806-11.851-5.966-3.068-9.356-5.208-9.356-7.879a2.21 2.21 0 0 1 .69-1.61 2.198 2.198 0 0 1 1.643-.597c4.03 0 8.52 5.209 11.184 9.313h1.63c-.199-2.802-.265-6.62-.265-8.342a20.217 20.217 0 0 0-11.36-3.178c-9.224 0-15.08 4.745-15.08 11.322 0 5.407 3.566 8.518 7.529 10.814 6.296 3.575 10.083 5.65 10.083 8.827 0 1.567-1.431 2.207-3.06 2.207l.088.022Zm-36.391-25.82c0-3.377.902-5.474 2.532-5.474 1.629 0 3.302 3.134 3.896 9.91l.132 1.412-5.922.927a31.766 31.766 0 0 1-.638-6.776Zm20.012 15.227-.97-.839a11.324 11.324 0 0 1-7.925 3.31c-4.535 0-8.233-3.045-9.994-8.981h17.612c.11-1.038.176-2.207.176-2.936 0-6.62-4.998-13.24-14.222-13.24a17.59 17.59 0 0 0-12.655 5.192 17.678 17.678 0 0 0-5.133 12.705c0 10.549 7.089 17.655 16.357 17.655 7.727 0 12.923-4.414 16.776-12.888l-.022.022Zm-45.66 9.843-1.167-.331c-2.928-.839-3.192-1.435-3.192-9.247v-7.879a6.275 6.275 0 0 1 6.957-4.678c2.03.033 4.043.383 5.966 1.037l1.1-.662a6.875 6.875 0 0 0 1.366-4.414 5.747 5.747 0 0 0-1.404-4.445 5.718 5.718 0 0 0-4.232-1.933c-5.086 0-7.794 3.774-9.753 11.851 0-3.465.132-8.342.264-11.277l-.66-.574a84.754 84.754 0 0 1-17.26 1.236v2.008l.572.133c2.026.463 2.026 1.898 2.026 12.115v7.482c0 7.945.242 8.827-2.092 9.445l-.506.133v2.008a244.141 244.141 0 0 1 22.015 0v-2.008ZM215.397 3c3.764 0 7.463 6.621 7.463 12.778 0 4.944-2.334 9.358-7.463 9.755V3Zm4.403 39.99-1.1-.265c-2.951-.795-3.303-1.898-3.303-9.181v-5.473c15.058-.199 23.578-7.283 23.578-15.294S233.361.463 219.227.463c-4.557 0-9.026.265-13.055.265-3.324 0-6.296 0-9.092-.265v2.03l1.1.2c1.432.242 1.498 1.301 1.498 9.313v21.671c0 7.879 0 8.982-1.497 9.247l-1.1.199v2.008c6.89-.331 15.784-.331 22.785 0l-.066-2.14Z"/></g><path fill="#00144A" d="m172.005 57.048-37.822-21.892v16.42H99.839V62.52h34.344v16.42zM49.93 35.156c-9.957-.003-18.652 6.753-21.134 16.42H0V62.61h28.796c2.838 11.017 13.621 18.018 24.81 16.108 11.19-1.91 19.055-12.093 18.097-23.43-.96-11.338-10.422-20.05-21.773-20.044"/><path d="M106.091 57.048C106.055 25.971 80.932.787 49.931.75H38.922v11.035H49.93c24.987 0 45.242 20.304 45.242 45.352 0 25.047-20.255 45.351-45.242 45.351h-5.063v23.305h10.171v-12.69c28.925-2.644 51.08-26.939 51.12-56.055" fill="#FA6D6F"/></g></svg>